#!OML:ASF E:\acrobat2\Project_11_07_03\Capture day 1\Session 1\Acrobat.ASF
:FULLY-SPECIFIED
:DEGREES
2224
root 11.1529 4.15172 10.6304 -82.5439 2.91446 168.791
lowerback -11.902093880649664 -3.6083719493990314 -4.4595890316874005
upperback -8.503081642375005 -9.744150126527726 11.264077173393
thorax -2.6325338960206954 -5.89259795684753 10.573100233004823
lowerneck -4.4938095499226 -17.413054824333354 14.6052520801715
upperneck -30.350714321725828 -22.99172927169537 1.931781737732508
head -12.603657953393363 -7.405678674574013 -3.058099631470063
rclavicle 2.38542e-15 -1.58034e-14
rhumerus -0.5167879573010645 -42.24513652354974 54.60429116393046
rradius 38.537791846289096
rwrist -27.480878195832755
rhand -27.004952652730267 -35.53685077525735
rfingers 4.783198858188732
rthumb 6.7546952282308 -69.95307088993025
lclavicle 2.38542e-15 -1.58034e-14
lhumerus 2.514572891570702 30.890874618710896 -19.445287710485143
lradius 66.0014844190345
lwrist 28.67963123072355
lhand -14.33643922460083 -30.35941266441222
lfingers 9.663608015951823
lthumb 9.120035723275102 -5.387500551008743
rfemur 2.556182420097987 3.082379474943374 2.6855915684017297
rtibia 55.698116923700965
rfoot 10.066475238079015 -12.24063832293157
rtoes 33.719946419684206
lfemur -6.416684831470963 -11.488267791949104 0.4364102659863539
ltibia 52.64015501705373
lfoot 50.56168364457529 12.01293482937155
ltoes 4.47688
2225
root 11.1529 4.15172 10.6304 -82.5439 2.91446 168.791
lowerback -11.932806512655196 -3.6167367187137396 -4.407240650934112
upperback -8.555298686878142 -9.80743395947031 11.241665584558854
thorax -2.629942448006116 -5.864531846776413 10.523089838565648
lowerneck -4.589014799111131 -17.411683105100536 14.525174953146713
upperneck -30.404175296866313 -23.049347588681364 2.012352082305169
head -12.516843936823689 -7.3934086888103 -3.1129029141567646
rclavicle 2.38542e-15 -1.58034e-14
rhumerus -1.228883789255296 -38.015782749620726 50.046819549201
rradius 37.28398242332786
rwrist -27.49595055765334
rhand -26.958848445319695 -35.53520700032982
rfingers 4.841828785088836
rthumb 6.678809399849635 -69.99602249987863
lclavicle 2.38542e-15 -1.58034e-14
lhumerus 4.128147313403449 26.369141420704253 -23.96255663641369
lradius 67.34032835390883
lwrist 28.743748064477863
lhand -14.385595714438825 -30.308227259970355
lfingers 9.704701262729793
lthumb 9.13664652347923 -5.291902680486757
rfemur 2.8580176408854654 2.7950893896281914 2.832158876191021
rtibia 59.06827045566623
rfoot 9.953779179336443 -11.943698094497242
rtoes 33.63446458992847
lfemur -6.290398715174978 -11.386124003201338 0.35001151036148936
ltibia 54.128814132540455
lfoot 50.60007515395231 11.801155530391453
ltoes 4.47688
2226
root 11.1529 4.15172 10.6304 -82.5439 2.91446 168.791
lowerback -11.939085058835326 -3.589065294714546 -4.442631677476501
upperback -8.490771695635122 -9.758985014350785 11.237766690235544
thorax -2.5924937012705316 -5.8673422007024385 10.432267945563966
lowerneck -4.626089256809303 -17.41950784138892 14.526571065690698
upperneck -30.468387490596 -23.029603110274188 2.030803605562761
head -12.457136123279177 -7.474914812152945 -3.211336076804975
rclavicle 2.38542e-15 -1.58034e-14
rhumerus -2.4239941552329918 -36.9531559063666 49.46367499777795
rradius 34.4823452357025
rwrist -27.45830541427398
rhand -26.944894279106297 -35.49973005970964
rfingers 4.9398413337347
rthumb 6.631049703671798 -69.95174091301813
lclavicle 2.38542e-15 -1.58034e-14
lhumerus 1.7226468039369434 27.30748455631359 -25.63411598806105
lradius 68.11638136148193
lwrist 28.676134516416123
lhand -14.330149314860122 -30.262819078073367
lfingers 9.742199865594529
lthumb 9.109345329398671 -5.1987570521691975
rfemur 3.201234970550858 2.298836524921058 2.820069056819306
rtibia 57.920013485479764
rfoot 10.034457362103465 -11.78016475211475
rtoes 34.015427785775785
lfemur -5.916668768329894 -11.173024446058175 0.4006410517990585
ltibia 50.53007514720868
lfoot 50.69997421500825 11.661163619346418
ltoes 4.47688
2227
root 11.1529 4.15172 10.6304 -82.5439 2.91446 168.791
lowerback -12.01913104232379 -3.5742482534866378 -4.4383547247733945
upperback -8.467184969191413 -9.690151647556858 11.161840872137041
thorax -2.5573031961356247 -5.837882706399663 10.39210276037194
lowerneck -4.56696314942329 -17.365145482652306 14.592252479203658
upperneck -30.52407106533132 -23.02714315629285 2.0347125957211176
head -12.510083951608424 -7.5304219205292275 -3.1527965652913177
rclavicle 2.38542e-15 -1.58034e-14
rhumerus -1.498317092980685 -33.246939798583725 45.524500160859986
rradius 32.83329101052952
rwrist -27.507897068902476
rhand -26.908128422548096 -35.559651443538996
rfingers 4.874268543002129
rthumb 6.5646182026052236 -69.97587909175421
lclavicle 2.38542e-15 -1.58034e-14
lhumerus 1.2957372392352577 25.473200049945714 -21.933608194770834
lradius 66.0809324098869
lwrist 28.72655945976563
lhand -14.353084055754664 -30.35448349204074
lfingers 9.785808398845427
lthumb 9.20665722624891 -5.2514695394510635
rfemur 3.5926473326731534 2.749965009625593 3.0721370488822393
rtibia 58.50624452411416
rfoot 10.472883762060098 -11.441135621849613
rtoes 34.129742992607746
lfemur -6.357340675235198 -10.978003380510488 0.842684414478592
ltibia 48.96862551589781
lfoot 50.851633403248584 11.95185055905719
ltoes 4.47688
